HIERARCHY
ROOT Hips
{
	OFFSET 0.000000 0.000000 0.000000 
	CHANNELS 6 Xposition Yposition Zposition Zrotation Xrotation Yrotation
	JOINT Spine
	{
		OFFSET -0.000000 8.280624 0.000000 
		CHANNELS 3 Zrotation Xrotation Yrotation
		JOINT Spine1
		{
			OFFSET -0.000000 24.860672 0.000000 
			CHANNELS 3 Zrotation Xrotation Yrotation
			JOINT Neck
			{
				OFFSET -0.000000 24.758574 2.250779 
				CHANNELS 3 Zrotation Xrotation Yrotation
				JOINT Head
				{
					OFFSET -0.000000 14.137651 -2.019665 
					CHANNELS 3 Zrotation Xrotation Yrotation
					End Site
					{
						OFFSET -0.000000 25.245806 0.000000 
					}
				}
			}
			JOINT LeftShoulder
			{
				OFFSET 4.021533 22.370487 -0.301823 
				CHANNELS 3 Zrotation Xrotation Yrotation
				JOINT LeftArm
				{
					OFFSET 12.928750 0.000000 0.000000 
					CHANNELS 3 Zrotation Xrotation Yrotation
					JOINT LeftForeArm
					{
						OFFSET 29.110218 0.000000 0.000000 
						CHANNELS 3 Zrotation Xrotation Yrotation
						JOINT LeftHand
						{
							OFFSET 26.112843 0.000000 0.000000 
							CHANNELS 3 Zrotation Xrotation Yrotation
							End Site
							{
								OFFSET 15.147485 0.000000 0.000000 
							}
						}
					}
				}
			}
			JOINT RightShoulder
			{
				OFFSET -4.040554 22.370487 -0.301823 
				CHANNELS 3 Zrotation Xrotation Yrotation
				JOINT RightArm
				{
					OFFSET -12.928750 0.000000 0.000000 
					CHANNELS 3 Zrotation Xrotation Yrotation
					JOINT RightForeArm
					{
						OFFSET -29.110218 0.000000 0.000000 
						CHANNELS 3 Zrotation Xrotation Yrotation
						JOINT RightHand
						{
							OFFSET -26.112843 0.000000 0.000000 
							CHANNELS 3 Zrotation Xrotation Yrotation
							End Site
							{
								OFFSET -15.147485 0.000000 0.000000 
							}
						}
					}
				}
			}
		}
	}
	JOINT LeftUpLeg
	{
		OFFSET 10.098323 0.000000 0.000000 
		CHANNELS 3 Zrotation Xrotation Yrotation
		JOINT LeftLeg
		{
			OFFSET -0.000000 -44.180832 0.000000 
			CHANNELS 3 Zrotation Xrotation Yrotation
			JOINT LeftFoot
			{
				OFFSET -0.000000 -40.401024 0.000000 
				CHANNELS 3 Zrotation Xrotation Yrotation
				JOINT LeftToeBase
				{
					OFFSET -0.000000 -6.563910 15.147485 
					CHANNELS 3 Zrotation Xrotation Yrotation
					End Site
					{
						OFFSET -0.000000 0.000000 4.039329 
					}
				}
			}
		}
	}
	JOINT RightUpLeg
	{
		OFFSET -10.098323 0.000000 0.000000 
		CHANNELS 3 Zrotation Xrotation Yrotation
		JOINT RightLeg
		{
			OFFSET -0.000000 -44.180832 0.000000 
			CHANNELS 3 Zrotation Xrotation Yrotation
			JOINT RightFoot
			{
				OFFSET -0.000000 -40.401024 0.000000 
				CHANNELS 3 Zrotation Xrotation Yrotation
				JOINT RightToeBase
				{
					OFFSET -0.000000 -6.563910 15.147485 
					CHANNELS 3 Zrotation Xrotation Yrotation
					End Site
					{
						OFFSET -0.000000 0.000000 4.039329 
					}
				}
			}
		}
	}
}
MOTION
Frames: 18
Frame Time: 0.008333
-30.384844 98.411217 -17.536860 4.898027 14.787115 149.455307 0.917277 10.159790 8.203718 4.677726 2.220041 8.194478 -2.180219 11.216288 6.070149 -8.237709 3.569561 5.502852 -3.762812 7.797384 -14.182484 -50.242508 31.017864 -24.641687 -44.521057 -9.707258 -68.130203 29.263460 -37.120975 8.755055 -3.778249 -0.964384 23.425856 57.768402 32.148739 46.616589 7.125790 -31.549221 24.217960 -0.130354 -32.829346 -16.866768 -3.441507 5.591432 -17.172211 -0.661932 7.235461 2.442736 -5.838357 18.090351 7.524101 0.000000 0.000000 0.000000 -11.755113 37.182388 -21.243946 -0.962695 13.807222 11.116609 15.139741 13.891380 -25.001474 0.000000 0.000000 0.000000 
-30.480131 98.307762 -17.103704 5.066046 14.475906 148.224823 0.918357 10.112767 7.883996 4.597428 2.474737 7.865805 -2.287121 11.496443 7.088825 -8.717508 2.811762 6.453747 -3.574384 7.738499 -14.236403 -49.537022 32.037956 -25.347717 -44.908539 -10.355490 -67.438110 27.798552 -37.423485 9.877676 -3.618128 -0.421068 23.188040 58.331055 31.867271 45.218819 7.693984 -32.280983 24.629791 -1.543622 -33.495335 -17.475651 -3.246142 5.044254 -16.500963 -0.673919 7.581679 2.715539 -5.857333 17.867130 7.646591 0.000000 0.000000 0.000000 -12.410975 36.328838 -20.832420 -0.919740 14.039713 10.469942 15.136629 13.029931 -24.656641 0.000000 0.000000 0.000000 
-30.576902 98.188919 -16.685730 5.194479 14.132353 147.067749 0.909257 9.968680 7.550560 4.556412 2.768393 7.519614 -2.400939 11.735540 8.066685 -9.202828 2.192325 7.367349 -3.429225 7.661911 -14.334382 -48.844238 33.115303 -26.075178 -44.926151 -10.983524 -66.817375 26.258459 -37.540524 10.929801 -3.485909 0.203722 22.915119 58.703491 31.525890 44.070995 8.255434 -33.064610 25.051622 -2.918171 -34.207203 -18.150930 -3.041206 4.455466 -15.944418 -0.698924 7.938969 3.038497 -5.867516 17.602995 7.745084 0.000000 0.000000 0.000000 -13.001487 35.419174 -20.584063 -0.905297 14.357415 10.254302 15.148921 12.099606 -24.844809 0.000000 0.000000 0.000000 
-30.675674 98.072136 -16.247326 5.284073 13.858144 145.927521 0.793061 9.894938 7.168543 4.538839 3.017920 7.117480 -2.561432 11.877715 9.038024 -9.606483 1.766248 8.299801 -3.293470 7.605333 -14.448306 -48.019680 34.600071 -26.938866 -44.571999 -12.000077 -66.553940 24.697304 -37.891853 12.233603 -3.357333 0.819943 22.636135 59.070797 31.188217 42.866295 8.876327 -33.952728 25.545385 -4.086658 -35.065441 -18.538790 -2.878413 3.881367 -15.351721 -0.732436 8.329343 3.313810 -5.884038 17.386992 7.866191 0.000000 0.000000 0.000000 -13.634508 34.519024 -20.492527 -0.876616 14.697506 9.988374 15.378404 10.966107 -25.330969 0.000000 0.000000 0.000000 
-30.776623 97.951347 -15.829587 5.387886 13.635401 144.824692 0.698052 9.874715 6.773095 4.486804 3.247142 6.706082 -2.688781 12.092224 9.986201 -10.039291 1.245159 9.190071 -3.187776 7.518155 -14.579378 -47.161846 35.567669 -27.792135 -44.473759 -12.435718 -65.808510 23.476768 -37.788528 13.017020 -3.263169 1.263191 22.295462 59.569901 30.788866 41.604935 9.719707 -34.700214 26.097681 -5.237420 -35.837936 -18.766479 -2.713663 3.381352 -14.782764 -0.769371 8.705103 3.549533 -5.876078 17.150150 7.992555 0.000000 0.000000 0.000000 -14.240932 33.692184 -20.439882 -0.816842 14.985117 9.574189 15.813313 9.732245 -25.909988 0.000000 0.000000 0.000000 
-30.882322 97.810699 -15.433586 5.516986 13.384574 143.693680 0.697579 9.783778 6.372655 4.383939 3.541766 6.296668 -2.813385 12.352597 10.922689 -10.481821 0.682344 10.057952 -3.121091 7.461400 -14.742382 -46.239964 36.360374 -28.729961 -44.421227 -12.958418 -64.993355 21.592007 -37.879261 13.520255 -3.214041 1.740803 21.903877 59.864796 30.528214 40.595066 10.448195 -35.481178 26.641956 -6.663634 -36.583542 -19.046736 -2.513127 2.896098 -14.134482 -0.782340 9.080701 3.770459 -5.840450 16.837130 8.049025 0.000000 0.000000 0.000000 -14.806212 32.853832 -20.454576 -0.758097 15.237710 9.200589 15.604234 9.130740 -26.060034 0.000000 0.000000 0.000000 
-30.987787 97.667336 -14.986226 5.553398 13.118327 142.627625 0.575846 9.691205 5.938713 4.305490 3.765729 5.845850 -2.930048 12.600946 11.810679 -10.904616 0.141182 10.875724 -3.007582 7.302704 -14.939920 -45.177105 37.351658 -29.776651 -44.358498 -13.624737 -64.266068 19.769606 -38.150299 13.912237 -3.151856 2.191167 21.536592 60.157887 30.235863 39.547684 11.264541 -36.318974 27.295473 -7.875350 -37.449333 -19.176413 -2.317436 2.300965 -13.497892 -0.838666 9.483196 4.018178 -5.823289 16.594370 8.079596 0.000000 0.000000 0.000000 -15.322471 31.932838 -20.718502 -0.756007 15.445642 8.951754 15.145977 8.735153 -26.043716 0.000000 0.000000 0.000000 
-31.101301 97.519356 -14.544559 5.535135 12.871035 141.604050 0.440226 9.583139 5.469865 4.172024 3.962331 5.362320 -3.023547 12.976000 12.711756 -11.360107 -0.572387 11.677398 -2.902213 7.126712 -15.139856 -43.996616 38.308208 -30.928373 -44.307667 -14.306707 -63.526646 18.004808 -38.459877 14.178285 -3.083653 2.569685 21.241634 60.434837 29.993549 38.470280 12.070909 -37.118210 27.990286 -8.971119 -38.302212 -19.256319 -2.164178 1.688883 -12.913591 -0.893501 9.893099 4.276482 -5.828034 16.365110 8.138001 0.000000 0.000000 0.000000 -15.841297 31.002916 -21.084848 -0.767442 15.605877 8.820035 14.851383 8.420727 -25.973236 0.000000 0.000000 0.000000 
-31.227646 97.364578 -14.107534 5.460594 12.637922 140.632065 0.308746 9.456141 4.969364 3.975971 4.112029 4.852036 -3.088110 13.418852 13.598337 -11.838692 -1.278999 12.452802 -2.892945 7.211151 -15.411193 -42.396488 39.061829 -32.338253 -44.191319 -14.935464 -62.854431 16.373491 -38.716724 14.438551 -3.073717 3.035372 21.087824 60.921524 29.392052 37.369194 12.859616 -37.789635 28.645935 -10.114110 -39.036572 -19.120621 -2.049700 1.040901 -12.340485 -0.949112 10.321813 4.518719 -5.834281 16.155296 8.196913 0.000000 0.000000 0.000000 -16.353771 30.072533 -21.385061 -0.752496 15.693901 8.638189 14.557199 8.470051 -25.678299 0.000000 0.000000 0.000000 
-31.339840 97.188782 -13.640675 5.452572 12.404416 139.625885 0.189243 9.404113 4.445536 3.794792 4.144065 4.323704 -3.190419 13.999352 14.501710 -12.211218 -2.003245 13.251708 -2.868478 7.250986 -15.788720 -40.625153 39.994106 -33.858829 -43.107292 -15.539076 -61.896629 12.556412 -38.561665 13.987851 -2.915554 3.561026 20.950264 61.440617 28.508642 36.166382 13.817073 -38.415421 29.325262 -11.024972 -39.825459 -18.667542 -1.827093 0.419741 -11.749617 -1.044175 10.750501 4.695304 -5.858692 15.908460 8.311034 0.000000 0.000000 0.000000 -16.754915 29.155464 -21.592781 -0.764931 15.737871 8.612323 14.408927 8.735524 -25.349514 0.000000 0.000000 0.000000 
-31.440508 97.018112 -13.194187 5.440462 12.207406 138.726471 0.096295 9.345426 3.898118 3.551330 4.327624 3.771705 -3.350260 13.949052 15.365252 -12.232683 -2.134942 14.144073 -2.787585 7.080485 -16.069014 -38.845169 40.940620 -35.517784 -41.495293 -15.808650 -60.649349 7.715178 -37.857498 12.938790 -2.822198 3.782131 20.612587 61.942886 27.993853 35.070427 14.819345 -39.095570 30.103767 -11.911072 -40.711136 -18.103065 -1.662097 -0.170530 -11.122988 -1.013191 11.204206 4.713586 -5.971221 15.693979 8.452556 0.000000 0.000000 0.000000 -17.083612 28.315836 -21.806835 -0.792805 15.760749 8.775796 14.589715 9.097567 -24.987226 0.000000 0.000000 0.000000 
-31.533178 96.837006 -12.735168 5.409011 12.001405 137.865845 -0.006038 9.246107 3.329484 3.292845 4.537026 3.198461 -3.368623 14.100539 16.184088 -12.552260 -2.547537 14.902934 -2.734469 6.818438 -16.430872 -36.911457 41.947483 -37.214764 -40.461548 -16.187353 -59.791740 4.903737 -37.512360 12.561769 -2.782088 4.185250 20.195576 62.386909 27.336390 34.250534 15.795201 -39.722694 30.924896 -12.600434 -41.589851 -17.428173 -1.591163 -0.840062 -10.124898 -0.698964 11.877281 4.634540 -6.070425 15.349374 8.247339 0.000000 0.000000 0.000000 -17.333015 27.455212 -21.896952 -0.790566 15.818161 8.886742 14.766397 9.272595 -24.618387 0.000000 0.000000 0.000000 
-31.619352 96.648735 -12.246737 5.350253 11.762765 137.044434 -0.200060 9.100758 2.779565 3.153292 4.742518 2.632981 -3.349731 14.343723 16.947399 -12.976043 -3.094508 15.566177 -2.775591 6.428230 -16.988539 -34.960400 42.886536 -38.808353 -40.854191 -16.817802 -59.551037 6.049165 -38.006863 13.490829 -2.770995 4.340143 19.957314 62.940544 26.861666 33.033482 16.839869 -40.528633 32.158016 -13.019701 -42.762051 -16.571388 -1.306266 -1.544982 -9.797608 -0.860172 12.413987 4.954112 -6.140656 15.069282 8.331613 0.000000 0.000000 0.000000 -17.485476 26.528606 -21.876600 -0.803490 16.073936 9.020470 15.598870 8.661465 -24.845045 0.000000 0.000000 0.000000 
-31.699800 96.481598 -11.757636 5.491154 11.564240 136.202271 -0.216940 9.013739 2.204588 2.948931 5.117380 2.055663 -3.247839 14.680516 17.678514 -13.560462 -3.788622 16.143820 -2.761662 6.230642 -17.656309 -32.615936 43.438236 -40.807701 -41.316528 -17.552515 -59.169025 5.632844 -38.745770 13.330702 -2.804763 4.451047 19.688799 63.479443 26.108658 31.895105 18.092272 -40.992302 33.290249 -13.405737 -43.697048 -15.223445 -0.930104 -2.090748 -9.402209 -0.922589 12.997890 5.200653 -6.244656 14.785959 8.390032 0.000000 0.000000 0.000000 -17.493469 25.726475 -21.659031 -0.749482 16.616474 8.878156 16.322807 7.721495 -25.324821 0.000000 0.000000 0.000000 
-31.780380 96.301003 -11.245506 5.538599 11.375999 135.369110 -0.275226 9.066227 1.571720 2.656250 5.242320 1.428252 -3.234482 14.924571 18.444067 -14.046340 -4.414349 16.781582 -2.787535 6.132943 -18.093267 -29.811087 44.445126 -43.139194 -41.263920 -18.707687 -59.279388 5.496171 -39.696079 13.881028 -2.777950 4.507963 19.490921 64.196632 25.611879 30.560038 19.080355 -41.354324 34.816879 -14.238595 -44.440838 -14.580000 -0.633144 -2.636170 -8.789401 -0.869018 13.479781 5.338690 -6.301080 14.566439 8.322979 0.000000 0.000000 0.000000 -17.557375 24.840754 -21.381222 -0.659967 17.350166 8.112323 16.706575 6.811318 -25.190105 0.000000 0.000000 0.000000 
-31.865934 96.122086 -10.742432 5.571669 11.205724 134.567917 -0.350886 9.074189 0.946795 2.373496 5.452218 0.805885 -3.296798 14.714929 19.262613 -14.106716 -4.421390 17.637266 -2.754424 5.901295 -18.512917 -27.163267 45.306705 -45.441792 -39.948700 -18.880707 -58.622303 2.830673 -39.164806 12.932748 -2.787476 4.601731 19.337702 64.786186 25.049395 29.488224 19.885550 -41.454800 36.103512 -14.645524 -44.951019 -13.610344 -0.350932 -3.223973 -8.425686 -0.891338 14.067839 5.519244 -6.414109 14.303027 8.469667 0.000000 0.000000 0.000000 -17.623140 24.019857 -20.890614 -0.546673 18.085138 7.772429 16.947599 5.752941 -25.258043 0.000000 0.000000 0.000000 
-30.968248 96.010208 -9.895813 6.608398 11.328318 134.012039 -2.329877 8.992218 0.441689 4.527509 6.678559 -0.005547 -3.276679 14.838938 20.023327 -14.489819 -4.911980 18.304539 -2.652644 5.625251 -19.057623 -24.711390 45.990688 -47.553493 -38.748566 -18.970734 -58.192123 1.086854 -38.619450 12.432450 -2.807315 4.878726 18.942455 65.084106 24.471216 28.945898 20.764311 -41.608738 37.280293 -14.330707 -45.630711 -12.154348 1.490738 -2.506992 -7.839921 -1.695572 14.269937 5.042627 -6.551434 13.840543 8.552191 0.000000 0.000000 0.000000 -15.950241 24.947990 -20.695906 -1.000564 17.715853 7.307434 17.376448 4.775820 -25.546665 0.000000 0.000000 0.000000 
-32.036572 95.778885 -9.746944 5.631573 10.932658 132.998260 -0.525711 8.964264 -0.261044 1.722234 6.074426 -0.393846 -3.137408 15.093673 20.765724 -14.947038 -5.504371 18.918118 -2.461142 5.423872 -19.674152 -22.257278 46.532314 -49.643242 -37.863743 -19.399408 -57.920147 -0.704789 -38.576794 11.819239 -2.834175 4.687307 18.908726 65.895462 23.777166 27.658484 21.916544 -41.731583 38.930984 -14.740139 -46.323929 -11.283206 0.159149 -4.312403 -7.794317 -0.906209 15.196729 5.755662 -6.655705 13.861034 8.973513 0.000000 0.000000 0.000000 -17.760319 22.635019 -19.809946 -0.254636 19.022474 7.009474 17.473869 3.745049 -25.106003 0.000000 0.000000 0.000000 
